<?xml version="1.0" standalone="no"?>
<!DOCTYPE svg PUBLIC "-//W3C//DTD SVG 20010904//EN"
 "http://www.w3.org/TR/2001/REC-SVG-20010904/DTD/svg10.dtd">
<svg version="1.0" xmlns="http://www.w3.org/2000/svg"
 width="484.000000pt" height="484.000000pt" viewBox="0 0 484.000000 484.000000"
 preserveAspectRatio="xMidYMid meet">
<metadata>
Created by potrace 1.11, written by Peter Selinger 2001-2013
</metadata>
<g transform="translate(0.000000,484.000000) scale(0.100000,-0.100000)"
fill="#000000" stroke="none">
<path d="M2168 3455 c-2 -2 -34 -6 -73 -10 -94 -9 -118 -12 -132 -13 -23 -3
-74 -55 -95 -96 -31 -59 -30 -149 2 -202 55 -93 93 -110 229 -105 179 6 463 4
526 -3 33 -3 89 -9 125 -12 36 -3 71 -7 78 -9 7 -3 34 -7 60 -11 39 -5 115
-19 202 -39 103 -23 380 -104 450 -132 8 -3 20 -7 25 -9 71 -18 471 -198 558
-251 20 -13 37 -20 37 -16 0 5 4 3 8 -3 8 -12 96 -59 99 -53 1 2 12 -6 25 -17
81 -74 218 -30 279 89 20 38 41 162 30 173 -6 6 -7 11 -10 38 -1 14 -70 59
-196 126 -93 50 -293 150 -347 174 -21 9 -53 22 -70 30 -81 36 -259 106 -318
125 -36 12 -74 26 -85 31 -21 8 -85 27 -150 44 -11 3 -45 12 -75 21 -30 9 -71
20 -90 25 -71 16 -226 49 -255 54 -131 20 -167 25 -235 31 -30 3 -66 8 -80 11
-26 6 -517 14 -522 9z"/>
<path d="M1320 3283 c-111 -40 -170 -118 -170 -225 0 -150 125 -258 270 -234
72 11 128 51 170 121 20 32 24 53 24 111 0 62 -4 78 -30 120 -42 69 -113 110
-191 112 -32 0 -65 -2 -73 -5z"/>
<path d="M815 2970 c-102 -15 -181 -100 -194 -209 -16 -135 83 -247 226 -255
29 -2 62 2 75 8 13 7 27 13 31 13 20 3 77 50 94 77 61 102 56 204 -14 285 -54
64 -134 93 -218 81z"/>
<path d="M2267 2884 c-2 -3 -13 -6 -23 -8 -153 -30 -299 -177 -344 -346 -15
-56 -15 -164 0 -221 13 -47 57 -145 74 -167 27 -32 76 -82 81 -82 3 0 15 -9
27 -20 12 -11 28 -20 35 -20 7 0 13 -4 13 -9 0 -10 38 -25 115 -46 65 -18 195
-13 260 10 276 97 399 420 257 674 -62 110 -178 200 -297 228 -36 8 -191 14
-198 7z"/>
<path d="M405 2381 c-3 -6 -10 -9 -15 -6 -15 9 -83 -24 -119 -58 -57 -54 -84
-146 -68 -229 7 -36 71 -120 111 -146 137 -88 507 -256 766 -348 69 -25 132
-47 140 -51 8 -3 20 -7 25 -8 6 -2 42 -12 80 -25 39 -12 77 -23 85 -25 8 -1
35 -9 60 -16 25 -7 50 -13 55 -15 6 -1 64 -14 130 -29 116 -26 248 -52 310
-60 157 -22 277 -32 450 -41 61 -3 115 -5 120 -5 6 -1 65 2 133 5 126 6 146
12 200 60 13 12 35 43 49 71 51 99 24 238 -59 309 -37 32 -84 51 -92 37 -9
-13 -446 -2 -576 14 -30 4 -68 9 -85 10 -27 2 -82 10 -140 21 -39 7 -100 17
-112 17 -7 0 -13 4 -13 9 0 5 -4 7 -9 4 -5 -4 -36 1 -68 9 -32 9 -76 20 -98
25 -22 5 -65 16 -95 25 -30 9 -62 17 -70 19 -26 7 -284 94 -315 107 -16 7 -32
13 -35 14 -3 1 -22 9 -44 18 -21 9 -40 17 -43 17 -6 0 -94 38 -115 50 -10 6
-25 10 -33 10 -8 0 -15 5 -15 12 0 6 -3 9 -6 5 -5 -4 -115 45 -188 85 -167 91
-285 134 -301 109z"/>
<path d="M3868 2228 c-184 -39 -246 -273 -106 -405 62 -58 184 -76 259 -38 73
38 127 119 131 196 2 46 -19 139 -32 139 -4 0 -10 8 -12 18 -6 21 -86 79 -121
87 -42 10 -82 11 -119 3z"/>
<path d="M3340 1913 c-36 -11 -101 -47 -119 -67 -10 -11 -29 -40 -40 -62 -65
-126 10 -292 147 -329 85 -22 165 -1 224 58 49 49 69 97 69 167 1 128 -87 224
-214 234 -28 2 -59 2 -67 -1z"/>
</g>
</svg>
